<svg xmlns="http://www.w3.org/2000/svg" viewBox="0 0 82 82"><g id="Layer_2" data-name="Layer 2"><g id="Icons"><path d="M41,82A41,41,0,1,1,82,41,41,41,0,0,1,41,82ZM41,2A39,39,0,1,0,80,41,39.05,39.05,0,0,0,41,2Z"/><path d="M52.05,23H30a7,7,0,0,0-7,7V52a7,7,0,0,0,7,7H52.05a7,7,0,0,0,7-7V30A7,7,0,0,0,52.05,23Zm2,4.15h.8v6.09l-6.08,0,0-6.1ZM35.87,37.31A6.32,6.32,0,1,1,34.67,41,6.31,6.31,0,0,1,35.87,37.31ZM55.5,52a3.45,3.45,0,0,1-3.45,3.44H30A3.45,3.45,0,0,1,26.51,52V37.31h5.38A9.64,9.64,0,0,0,31.16,41a9.85,9.85,0,1,0,19-3.69H55.5Z"/></g></g></svg>