<svg xmlns="http://www.w3.org/2000/svg" viewBox="0 0 82 82"><defs><style>.cls-1{fill-rule:evenodd;}</style></defs><g id="Layer_2" data-name="Layer 2"><g id="Icons"><path d="M41,82A41,41,0,1,1,82,41,41,41,0,0,1,41,82ZM41,2A39,39,0,1,0,80,41,39.05,39.05,0,0,0,41,2Z"/><path class="cls-1" d="M58.62,37.38a18.23,18.23,0,0,0-1-3.39,17.65,17.65,0,0,0-1.66-3.05,18.09,18.09,0,0,0-2.19-2.67,18.54,18.54,0,0,0-2.66-2.19,18,18,0,0,0-6.44-2.71,17.89,17.89,0,0,0-7.24,0,18,18,0,0,0-6.44,2.71,18.54,18.54,0,0,0-2.66,2.19,18.09,18.09,0,0,0-2.19,2.67,17.75,17.75,0,0,0-2.71,6.44,17.94,17.94,0,0,0,0,7.25A17.63,17.63,0,0,0,24.43,48a18.12,18.12,0,0,0,1.66,3.06,17.86,17.86,0,0,0,4.85,4.85,18,18,0,0,0,6.44,2.71,17.89,17.89,0,0,0,7.24,0,18,18,0,0,0,6.44-2.71,17.86,17.86,0,0,0,4.85-4.85A18.12,18.12,0,0,0,57.57,48a18,18,0,0,0,1-10.63Zm-2.26,3.47a35.59,35.59,0,0,0-10.7-.51l-.33-.79c-.33-.75-.67-1.5-1-2.23,6.07-2.48,8.53-6,8.56-6.08A15.29,15.29,0,0,1,56.36,40.85ZM51.15,29.46c0,.06-2.23,3.4-8,5.57a77.93,77.93,0,0,0-5.74-9,15.39,15.39,0,0,1,13.77,3.4ZM37.32,26.07h0Zm-2.87,1A94.14,94.14,0,0,1,40.15,36,56.25,56.25,0,0,1,26,37.83,15.37,15.37,0,0,1,34.45,27.1ZM25.64,41c0-.17,0-.33,0-.49a56.05,56.05,0,0,0,15.77-2.19c.44.86.86,1.74,1.25,2.62a6.13,6.13,0,0,0-.61.18C33.77,43.8,29.57,51.26,29.57,51.26h0A15.33,15.33,0,0,1,25.64,41ZM41,56.37a15.3,15.3,0,0,1-9.79-3.52l.35.27s2.94-6.43,12.05-9.6l.1,0A63.85,63.85,0,0,1,47,55.15,15.17,15.17,0,0,1,41,56.37Zm8.58-2.62a65.21,65.21,0,0,0-3-11,22.18,22.18,0,0,1,9.57.67A15.37,15.37,0,0,1,49.58,53.75Z"/></g></g></svg>