<svg xmlns="http://www.w3.org/2000/svg" viewBox="0 0 82 82"><g id="Layer_2" data-name="Layer 2"><g id="Icons"><path d="M41,82A41,41,0,1,1,82,41,41,41,0,0,1,41,82ZM41,2A39,39,0,1,0,80,41,39.05,39.05,0,0,0,41,2Z"/><path d="M41,22.89a18,18,0,0,0-7.21,34.49,15.88,15.88,0,0,1,.31-4.13c.35-1.46,2.31-9.81,2.31-9.81a7,7,0,0,1-.57-2.85c0-2.67,1.54-4.66,3.46-4.66a2.41,2.41,0,0,1,2.43,2.7c0,1.65-1,4.11-1.59,6.39A2.79,2.79,0,0,0,43,48.49c3.4,0,5.69-4.38,5.69-9.57,0-4-2.65-6.9-7.47-6.9a8.52,8.52,0,0,0-8.85,8.62,5.22,5.22,0,0,0,1.19,3.53.87.87,0,0,1,.26,1c-.09.33-.29,1.13-.37,1.45a.62.62,0,0,1-.9.45c-2.51-1-3.68-3.78-3.68-6.88,0-5.11,4.3-11.24,12.84-11.24,6.86,0,11.37,5,11.37,10.31,0,7.06-3.91,12.33-9.69,12.33A5.16,5.16,0,0,1,39,49.35s-1,4.15-1.26,4.95a15,15,0,0,1-1.81,3.85,17.8,17.8,0,0,0,5.09.74,18,18,0,0,0,0-36"/></g></g></svg>