<svg xmlns="http://www.w3.org/2000/svg" viewBox="0 0 226.77 24.64"><defs><style>.cls-1{fill:#fff;}</style></defs><g id="Layer_2" data-name="Layer 2"><g id="Layer_1-2" data-name="Layer 1"><path class="cls-1" d="M27.33.37h6.35V.56c-.71.37-1.6.79-2.69,1.27L23.14,24.6h-.71L17.05,7.81,11.14,24.6h-.56l-8.19-23C1.5,1.27.79.93,0,.56V.37H8.79V.56l-3,1.05,6.39,18.24,4.56-13L15,1.57a23.92,23.92,0,0,1-2.36-1V.37h8.75V.56a25.3,25.3,0,0,1-2.8,1L24,20.11,30.28,1.83l-3-1.27Z"/><path class="cls-1" d="M51.85.37V.56c-.82.34-2,.75-2.84,1v21.5c.86.26,2,.67,2.84,1v.19H43v-.19c.82-.33,2-.74,2.84-1V1.57c-.86-.26-2-.67-2.84-1V.37Z"/><path class="cls-1" d="M81.05,16.11h.26c.19,2.28.22,5.87.22,8.15H63.85v-.19c.82-.33,2-.74,2.84-1V1.57c-.86-.26-2-.67-2.84-1V.37h8.82V.56c-.82.34-2,.75-2.84,1v21.5l1.76.59h6.09Z"/><path class="cls-1" d="M109.31,16.11h.26c.19,2.28.23,5.87.23,8.15H92.11v-.19c.83-.33,2-.74,2.85-1V1.57c-.86-.26-2-.67-2.85-1V.37h8.83V.56c-.83.34-2,.75-2.84,1v21.5l1.75.59H106Z"/><path class="cls-1" d="M129.2.37V.56c-.82.34-2,.75-2.84,1v21.5c.86.26,2,.67,2.84,1v.19h-8.82v-.19c.82-.33,2-.74,2.84-1V1.57c-.86-.26-2-.67-2.84-1V.37Z"/><path class="cls-1" d="M150.88.11,159.48,23a20.06,20.06,0,0,1,2.73,1v.19h-9v-.19c1-.37,1.87-.71,2.84-1l-2.39-6.43h-9.16l-2.36,6.17c1.09.45,1.94.86,2.84,1.3v.19h-6.43v-.19a26,26,0,0,1,2.92-1.3L150.25.11ZM149.2,4.45,144.79,16h8.67Z"/><path class="cls-1" d="M198.32,23.07c.94.29,1.83.63,2.73,1v.19h-8.71v-.19c.93-.37,1.83-.71,2.8-1L193.31,3.25h0l-8.22,20.6h-.56L176.34,3h0l-1.79,19.82c1.08.37,2.28.86,3.25,1.3v.19h-7v-.19c.9-.41,2-.89,3-1.3l2-20.94-.08-.07c-1.12-.38-2.24-.79-3.29-1.2V.37h6.32l7.37,19.11L193.69.37h5.38V.56c-.94.37-1.87.71-2.84,1h0Z"/><path class="cls-1" d="M212.08,23.44c-.08-2.32-.08-4.86,0-6.88h.26l3.52,6.88A7.56,7.56,0,0,0,219,24c3.32,0,5.45-1.76,5.45-5,0-6.58-12.33-4.86-12.33-13C212.12,2,215.37,0,219.37,0a13.66,13.66,0,0,1,6.28,1.31c0,2.13-.11,4.3-.26,6.43h-.23l-3.32-6.47A5.16,5.16,0,0,0,219.22.6c-3,0-4.82,1.57-4.82,4.26,0,6.39,12.37,4.6,12.37,13.23,0,4.45-3.74,6.55-8.26,6.55A17.08,17.08,0,0,1,212.08,23.44Z"/></g></g></svg>