<svg xmlns="http://www.w3.org/2000/svg" viewBox="0 0 824.97 89.62"><defs><style>.cls-1{fill:#fff;}</style></defs><title>Asset 1</title><g id="Layer_2" data-name="Layer 2"><g id="Layer_1-2" data-name="Layer 1"><path class="cls-1" d="M99.41,1.36h23.12V2C120,3.4,116.69,4.9,112.74,6.66L84.18,89.49H81.6L62,28.42,40.53,89.49h-2L8.7,5.85C5.44,4.62,2.86,3.4,0,2V1.36H32V2c-3.54,1.22-7.34,2.58-11,3.81L44.2,72.21,60.79,24.75l-6.12-19A81.78,81.78,0,0,1,46.1,2V1.36H77.93V2a89.67,89.67,0,0,1-10.2,3.67L87.45,73.17,110.16,6.66,99.41,2Z"/><path class="cls-1" d="M188.63,1.36V2c-3,1.22-7.21,2.72-10.33,3.67v78.2c3.12,1,7.34,2.45,10.33,3.67v.68H156.54v-.68c3-1.22,7.2-2.72,10.33-3.67V5.71c-3.13-1-7.34-2.45-10.33-3.67V1.36Z"/><path class="cls-1" d="M294.85,58.61h.95c.68,8.3.81,21.36.81,29.65H232.29v-.68c3-1.22,7.2-2.72,10.33-3.67V5.71c-3.13-1-7.34-2.45-10.33-3.67V1.36h32.09V2c-3,1.22-7.21,2.72-10.33,3.67v78.2l6.39,2.18h22.17Z"/><path class="cls-1" d="M397.66,58.61h.95c.68,8.3.82,21.36.82,29.65H335.1v-.68c3-1.22,7.21-2.72,10.34-3.67V5.71c-3.13-1-7.35-2.45-10.34-3.67V1.36h32.1V2c-3,1.22-7.21,2.72-10.34,3.67v78.2l6.39,2.18h22.17Z"/><path class="cls-1" d="M470,1.36V2c-3,1.22-7.2,2.72-10.33,3.67v78.2c3.13,1,7.34,2.45,10.33,3.67v.68H437.92v-.68c3-1.22,7.21-2.72,10.33-3.67V5.71c-3.12-1-7.34-2.45-10.33-3.67V1.36Z"/><path class="cls-1" d="M548.89.41l31.28,83.36a72.55,72.55,0,0,1,9.93,3.81v.68H557.46v-.68c3.54-1.36,6.8-2.58,10.34-3.81l-8.71-23.39H525.77L517.2,82.82c3.95,1.63,7.08,3.13,10.34,4.76v.68H504.15v-.68a91.23,91.23,0,0,1,10.61-4.76L546.58.41Zm-6.12,15.77-16,42h31.56Z"/><path class="cls-1" d="M721.47,83.91c3.4,1.09,6.67,2.31,9.93,3.67v.68H699.71v-.68c3.41-1.36,6.67-2.58,10.21-3.67l-6.67-72.08h-.13L673.2,86.77h-2l-29.65-76h-.14l-6.53,72.08c3.95,1.36,8.3,3.13,11.84,4.76v.68H621.24v-.68c3.27-1.49,7.35-3.26,11-4.76l7.21-76.16-.27-.27C635.12,5,631,3.54,627.23,2V1.36h23L677,70.85,704.61,1.36H724.2V2c-3.41,1.36-6.8,2.58-10.34,3.67h-.14Z"/><path class="cls-1" d="M771.52,85.27c-.27-8.43-.27-17.68-.13-25h1l12.78,25a27.35,27.35,0,0,0,11.56,2.18c12.11,0,19.86-6.4,19.86-18.09,0-23.94-44.88-17.68-44.88-47.33,0-14.82,11.83-22,26.38-22,9.39,0,17.14,1.77,22.85,4.76-.13,7.75-.41,15.64-.95,23.39h-.82L807,4.62a18.74,18.74,0,0,0-9.52-2.44C786.62,2.18,780,7.89,780,17.68c0,23.26,45,16.73,45,48.14,0,16.19-13.6,23.8-30.05,23.8A61.71,61.71,0,0,1,771.52,85.27Z"/></g></g></svg>