<svg xmlns="http://www.w3.org/2000/svg" viewBox="0 0 708.66 82.34"><defs><style>.cls-1{fill:#fff;}</style></defs><title>Williams Joinery - logo</title><g id="Layer_2" data-name="Layer 2"><g id="Layer_1-2" data-name="Layer 1"><path class="cls-1" d="M103.16,5.69a4.17,4.17,0,0,0-2.09.59c-.68.39-1.24.7-1.66.91a8.2,8.2,0,0,0-3.22,3,17.14,17.14,0,0,0-1.94,4.67L77.94,73.32,80.73,80l-15.79.85L50.55,28.73,38.24,72.14l3,7.84-15.78.85L5.26,6.44,0,5.69V1.93H26.09V5.7l-5.91.76L35.53,63.77,47.77,19.43l-4.83-15L57.43,1.05,74.92,63.74l13.5-48c.3-1.15.49-1.93.57-2.36a9.39,9.39,0,0,0,.11-1.5A5,5,0,0,0,86.63,7.3a12.36,12.36,0,0,0-3.54-1.18c-.5-.07-1.22-.22-2.15-.43V1.93h22.22Z"/><path class="cls-1" d="M158.45,80.08H129.14V76.32l7-.75V6.44l-7-.75V1.93h29.31V5.69l-7.73.75V75.57l7.73.75Z"/><path class="cls-1" d="M248.63,57.22l-6.44,23.93-1.77-.48c-.68-.18-1.36-.32-2-.43a13.13,13.13,0,0,0-1.88-.16h-47l-.21-3.76,6.43-.75V6.44l-6.43-.75V1.93h26.62V5.69l-6.55.75V75.57H220.4a21.05,21.05,0,0,0,9.12-2,24.11,24.11,0,0,0,7.63-5.85,48.26,48.26,0,0,0,3.64-5,56.71,56.71,0,0,0,3.55-6.55Z"/><path class="cls-1" d="M338.6,57.22l-6.44,23.93-1.77-.48c-.68-.18-1.36-.32-2-.43a13.25,13.25,0,0,0-1.88-.16h-47l-.21-3.76,6.43-.75V6.44l-6.43-.75V1.93h26.62V5.69l-6.55.75V75.57h11.06a21.05,21.05,0,0,0,9.12-2,24,24,0,0,0,7.62-5.85,46.8,46.8,0,0,0,3.65-5,58.3,58.3,0,0,0,3.55-6.55Z"/><path class="cls-1" d="M399.79,80.08h-29.3V76.32l7-.75V6.44l-7-.75V1.93h29.3V5.69l-7.72.75V75.57l7.72.75Z"/><path class="cls-1" d="M504.26,80.08H477.1V76.34l7.19-.74-6.67-19.67H451.39l-3.32,10.65a10.38,10.38,0,0,0-.71,3.86,7.07,7.07,0,0,0,.48,2.68A3.87,3.87,0,0,0,449.51,75a12.62,12.62,0,0,0,4.29,1.13,7.56,7.56,0,0,1,1.4.21v3.75H432V76.32a12.6,12.6,0,0,0,5.37-1.87,11.51,11.51,0,0,0,3.49-3.12A17.53,17.53,0,0,0,442.75,67L461.64,8.48l-2.58-6L474,1.18l25.22,74.39,5.05.75ZM476,50.78,464.42,15.22,453.17,50.78Z"/><path class="cls-1" d="M620.42,80.08H593.79V76.32l6.12-.75L598.3,14,576.94,65.48h-3.33L553.21,14,551.5,66.2a15.08,15.08,0,0,0,.8,5.12,7.2,7.2,0,0,0,3,3.6,6.14,6.14,0,0,0,3,1.08c1.18.15,2.27.26,3.27.32v3.76h-24.8V76.32a9.61,9.61,0,0,0,5.69-1.66,8.13,8.13,0,0,0,3.17-4,17.32,17.32,0,0,0,.8-5.59l1.72-58.61L541,5.69V1.93h22.31l17,42.68L597.71,1.93h21V5.69l-6.55.75,2,69.13,6.23.75Z"/><path class="cls-1" d="M708.66,58.29A22.3,22.3,0,0,1,701.47,75q-7.72,7.29-19.86,7.3-4,0-12.45-2.47a18.71,18.71,0,0,0-4.73-1,24.17,24.17,0,0,0-7.83,2.69l-5.37-24.05,4.51-1.08L657.13,59a44.18,44.18,0,0,0,11.06,13.31,23,23,0,0,0,14.38,5.26,17.18,17.18,0,0,0,10.63-3.22A11.52,11.52,0,0,0,698,64.73a12.07,12.07,0,0,0-4-9.12,25.51,25.51,0,0,0-9.45-5.37L674.1,46.37q-9.89-3.54-14.71-8.58-5.91-6.22-5.91-16.11A20.81,20.81,0,0,1,659,7Q665.08.42,675.27.43H677a29.91,29.91,0,0,1,7.73,1.13c1.79.56,3.61,1.11,5.48,1.66a5.46,5.46,0,0,0,3.38-.7A26.74,26.74,0,0,0,698,0l5.58,23.3-4.51,1.39L698,22.44q-4.75-8.27-9-12.14a18.76,18.76,0,0,0-12.86-5.15,15,15,0,0,0-9.34,3,9.81,9.81,0,0,0-3.94,8.27,11.94,11.94,0,0,0,4.29,9.34q3.33,3,10.1,5.36l12.13,4.3q8.89,3.1,13.63,8.26A20.7,20.7,0,0,1,708.66,58.29Z"/></g></g></svg>