<svg xmlns="http://www.w3.org/2000/svg" viewBox="0 0 425.2 46.19"><g id="Layer_2" data-name="Layer 2"><g id="Layer_1-2" data-name="Layer 1"><path d="M51.24.7H63.16v.35c-1.34.7-3,1.47-5,2.38L43.39,46.12H42.06L32,14.65,20.89,46.12H19.84L4.49,3c-1.69-.63-3-1.26-4.49-2V.7H16.47v.35c-1.82.63-3.78,1.33-5.68,2l12,34.21,8.55-24.46L28.18,2.94a41.94,41.94,0,0,1-4.42-1.89V.7h16.4v.35a45.81,45.81,0,0,1-5.25,1.89L45.07,37.71,56.78,3.43,51.24,1.05Z"/><path d="M97.22.7v.35c-1.54.63-3.71,1.4-5.33,1.89V43.25c1.62.49,3.79,1.26,5.33,1.89v.35H80.68v-.35c1.54-.63,3.71-1.4,5.33-1.89V2.94c-1.62-.49-3.79-1.26-5.33-1.89V.7Z"/><path d="M152,30.21h.49c.35,4.28.42,11,.42,15.28H119.72v-.35c1.54-.63,3.72-1.4,5.33-1.89V2.94c-1.61-.49-3.79-1.26-5.33-1.89V.7h16.54v.35c-1.54.63-3.71,1.4-5.32,1.89V43.25l3.29,1.12h11.43Z"/><path d="M205,30.21h.49c.35,4.28.42,11,.42,15.28H172.71v-.35c1.55-.63,3.72-1.4,5.33-1.89V2.94c-1.61-.49-3.78-1.26-5.33-1.89V.7h16.55v.35c-1.55.63-3.72,1.4-5.33,1.89V43.25l3.29,1.12h11.43Z"/><path d="M242.25.7v.35c-1.54.63-3.72,1.4-5.33,1.89V43.25c1.61.49,3.79,1.26,5.33,1.89v.35H225.71v-.35c1.54-.63,3.71-1.4,5.32-1.89V2.94c-1.61-.49-3.78-1.26-5.32-1.89V.7Z"/><path d="M282.9.21l16.12,43a36.5,36.5,0,0,1,5.12,2v.35H287.32v-.35c1.82-.7,3.5-1.33,5.33-2l-4.49-12.06H271l-4.42,11.57c2,.84,3.65,1.61,5.33,2.45v.35H259.84v-.35a47.38,47.38,0,0,1,5.47-2.45L281.71.21Zm-3.15,8.13L271.48,30h16.26Z"/><path d="M371.85,43.25c1.76.56,3.44,1.19,5.12,1.89v.35H360.64v-.35c1.75-.7,3.43-1.33,5.26-1.89L362.46,6.1h-.07L347,44.72h-1.05L330.64,5.54h-.07L327.2,42.69c2,.7,4.28,1.61,6.1,2.45v.35H320.19v-.35c1.69-.77,3.79-1.68,5.68-2.45l3.72-39.26-.14-.14c-2.11-.7-4.21-1.47-6.17-2.24V.7h11.84l13.81,35.82L363.16.7h10.1v.35c-1.76.7-3.51,1.33-5.33,1.89h-.07Z"/><path d="M397.65,44c-.14-4.35-.14-9.11-.07-12.9h.49L404.66,44a14.09,14.09,0,0,0,6,1.12c6.24,0,10.23-3.29,10.23-9.32,0-12.34-23.13-9.11-23.13-24.4,0-7.64,6.1-11.35,13.6-11.35a25.58,25.58,0,0,1,11.77,2.45c-.07,4-.21,8.06-.49,12.06h-.42L415.94,2.38A9.64,9.64,0,0,0,411,1.12c-5.61,0-9,3-9,8,0,12,23.2,8.62,23.2,24.82,0,8.34-7,12.26-15.49,12.26A31.86,31.86,0,0,1,397.65,44Z"/></g></g></svg>